<svg xmlns="http://www.w3.org/2000/svg" width="12.602" height="9.599" viewBox="0 0 12.602 9.599">
  <g id="mail_1_" data-name="mail (1)" transform="translate(0 0)">
    <g id="Group_183" data-name="Group 183" transform="translate(0.633 0)">
      <g id="Group_182" data-name="Group 182">
        <path id="Path_276" data-name="Path 276" d="M36.582,61H26.2a1.1,1.1,0,0,0-.475.111l5.643,5.643,1.265-1.216h0l4.428-4.427A1.1,1.1,0,0,0,36.582,61Z" transform="translate(-25.721 -61)" fill="#0c5065"/>
      </g>
    </g>
    <g id="Group_185" data-name="Group 185" transform="translate(8.324 0.633)">
      <g id="Group_184" data-name="Group 184" transform="translate(0 0)">
        <path id="Path_277" data-name="Path 277" d="M342.38,86.728l-4.167,4.166,4.166,4.166a1.1,1.1,0,0,0,.111-.475V87.2A1.1,1.1,0,0,0,342.38,86.728Z" transform="translate(-338.213 -86.728)" fill="#0c5065"/>
      </g>
    </g>
    <g id="Group_187" data-name="Group 187" transform="translate(0 0.633)">
      <g id="Group_186" data-name="Group 186" transform="translate(0 0)">
        <path id="Path_278" data-name="Path 278" d="M.111,86.721A1.1,1.1,0,0,0,0,87.2v7.384a1.1,1.1,0,0,0,.111.474l4.167-4.166Z" transform="translate(0 -86.721)" fill="#0c5065"/>
      </g>
    </g>
    <g id="Group_189" data-name="Group 189" transform="translate(0.633 5.322)">
      <g id="Group_188" data-name="Group 188">
        <path id="Path_279" data-name="Path 279" d="M32.883,277.211l-1.265,1.216a.369.369,0,0,1-.522,0l-1.216-1.216-4.167,4.166a1.1,1.1,0,0,0,.475.111H36.575a1.1,1.1,0,0,0,.475-.111Z" transform="translate(-25.714 -277.211)" fill="#0c5065"/>
      </g>
    </g>
  </g>
</svg>
