<svg id="phone" xmlns="http://www.w3.org/2000/svg" width="12.129" height="12.129" viewBox="0 0 12.129 12.129">
  <g id="Group_179" data-name="Group 179">
    <path id="Path_275" data-name="Path 275" d="M11.156,7.962a6.887,6.887,0,0,1-2.163-.344.989.989,0,0,0-.961.2L6.668,8.849A7.537,7.537,0,0,1,3.279,5.461l1-1.328A.98.98,0,0,0,4.52,3.14,6.9,6.9,0,0,1,4.174.973.974.974,0,0,0,3.2,0H.973A.974.974,0,0,0,0,.973,11.169,11.169,0,0,0,11.156,12.129a.974.974,0,0,0,.973-.973V8.935A.974.974,0,0,0,11.156,7.962Z" fill="#0c5065"/>
  </g>
</svg>
