<svg xmlns="http://www.w3.org/2000/svg" width="26" height="26" viewBox="0 0 26 26">
  <g id="profile" transform="translate(-1308.138 -80.138)">
    <circle id="Ellipse_2" data-name="Ellipse 2" cx="13" cy="13" r="13" transform="translate(1308.138 80.138)" fill="#edab23"/>
    <g id="man" transform="translate(1315.138 86.138)">
      <path id="Path_19" data-name="Path 19" d="M116.725,4.622c0-.226,0-.365,0-.365a5.578,5.578,0,0,0,1.63-2.215,6.169,6.169,0,0,0,3.363,2.2s.01.148.007.387a.574.574,0,0,1,.688.059A3.4,3.4,0,0,0,119.393,0a1.8,1.8,0,0,0-1.441.661c-.807-.62-1.7.124-2.018,1.281a7.961,7.961,0,0,0,.077,2.777.567.567,0,0,1,.713-.1Zm0,0" transform="translate(-112.749 0)" fill="#945b44"/>
      <path id="Path_20" data-name="Path 20" d="M325.511,170.531a.574.574,0,0,0-.8-.181,6.594,6.594,0,0,1-.33,2.05C325.564,172.8,325.923,171.1,325.511,170.531Zm0,0" transform="translate(-315.735 -165.722)" fill="#ffbd86"/>
      <path id="Path_21" data-name="Path 21" d="M114.5,170.346a.571.571,0,0,0-.784.187c-.411.572-.053,2.262,1.123,1.87A6.636,6.636,0,0,1,114.5,170.346Zm0,0" transform="translate(-110.521 -165.724)" fill="#ffbd86"/>
      <path id="Path_22" data-name="Path 22" d="M324.524,195.872c-.038.154-.084.309-.138.461.971.326,1.385-.767,1.27-1.482C325.572,195.435,325.2,196.012,324.524,195.872Zm0,0" transform="translate(-315.735 -189.654)" fill="#ffa664"/>
      <path id="Path_23" data-name="Path 23" d="M113.571,194.855c-.115.714.3,1.805,1.268,1.482-.055-.152-.1-.307-.14-.461C114.028,196.013,113.656,195.437,113.571,194.855Zm0,0" transform="translate(-110.524 -189.658)" fill="#ffa664"/>
      <path id="Path_24" data-name="Path 24" d="M193.633,297.473a2.056,2.056,0,0,1-1.363-.461V298.2a1.357,1.357,0,1,0,2.713,0v-1.189A2.058,2.058,0,0,1,193.633,297.473Zm0,0" transform="translate(-187.142 -289.09)" fill="#ffbd86"/>
      <path id="Path_25" data-name="Path 25" d="M154.049,78.777s.273,4.132-2.483,4.141-2.51-4.125-2.51-4.125a5.578,5.578,0,0,0,1.63-2.215,6.17,6.17,0,0,0,3.363,2.2Zm0,0" transform="translate(-145.075 -74.535)" fill="#fed2a4"/>
      <path id="Path_26" data-name="Path 26" d="M151.565,163.932c-2.147.007-2.472-2.5-2.511-3.608-.013.291-.14,4.116,2.511,4.107,2.559-.008,2.507-3.572,2.486-4.081-.038,1.129-.366,3.575-2.486,3.582Zm0,0" transform="translate(-145.074 -156.048)" fill="#ffbd86"/>
      <path id="Path_27" data-name="Path 27" d="M192.27,297.012v.5a2.224,2.224,0,0,0,2.713,0v-.5a2.226,2.226,0,0,1-2.713,0Zm0,0" transform="translate(-187.142 -289.091)" fill="#ffa664"/>
      <path id="Path_28" data-name="Path 28" d="M12.143,344.044c-.746-.6-4.3-2.466-4.3-2.466a1.357,1.357,0,1,1-2.713,0s-3.555,1.863-4.3,2.466A3.16,3.16,0,0,0,0,345.97a.137.137,0,0,0,.136.154H12.832a.137.137,0,0,0,.136-.154,3.16,3.16,0,0,0-.826-1.926Zm0,0" transform="translate(-0.001 -332.468)"/>
      <path id="Path_29" data-name="Path 29" d="M.056,493.3c-.027.138-.044.258-.054.345a.137.137,0,0,0,.136.154H12.833a.137.137,0,0,0,.136-.154c-.011-.087-.028-.207-.054-.345Zm0,0" transform="translate(-0.001 -480.148)"/>
      <path id="Path_30" data-name="Path 30" d="M183,158.157a.349.349,0,1,0-.341.422A.384.384,0,0,0,183,158.157Zm0,0" transform="translate(-177.453 -153.528)" fill="#433f43"/>
      <path id="Path_31" data-name="Path 31" d="M278.708,158.579a.432.432,0,1,0-.341-.422A.384.384,0,0,0,278.708,158.579Zm0,0" transform="translate(-270.943 -153.528)" fill="#433f43"/>
      <path id="Path_32" data-name="Path 32" d="M224.712,177.889h.065a.208.208,0,0,0-.017-.415c-.1,0-.28,0-.335-.09-.071-.113.011-.382.089-.529a.208.208,0,0,0-.366-.2,1.07,1.07,0,0,0-.075.945A.7.7,0,0,0,224.712,177.889Zm0,0" transform="translate(-218.008 -171.84)" fill="#ffa664"/>
      <path id="Path_33" data-name="Path 33" d="M199.641,233.808a.208.208,0,0,0-.06.288,1.334,1.334,0,0,0,2.257,0,.208.208,0,0,0-.347-.229.919.919,0,0,1-1.562,0A.208.208,0,0,0,199.641,233.808Zm0,0" transform="translate(-194.225 -227.539)" fill="#ff646f"/>
    </g>
    <circle id="Ellipse_3" data-name="Ellipse 3" cx="2" cy="2" r="2" transform="translate(1328.138 81.138)" fill="red"/>
  </g>
</svg>
